<svg height="56.693" viewBox="0 0 56.693 56.693" width="56.693" xmlns="http://www.w3.org/2000/svg">
  <path d="M28.348 5.157c-13.6 0-24.625 11.027-24.625 24.625 0 13.6 11.025 24.623 24.625 24.623S52.97 43.382 52.97 29.782c0-13.598-11.023-24.625-24.622-24.625zm12.404 19.66c.013.266.018.533.018.803 0 8.2-6.242 17.656-17.656 17.656-3.504 0-6.767-1.027-9.513-2.787.487.056.98.085 1.48.085 2.91 0 5.585-.992 7.708-2.656-2.715-.052-5.006-1.847-5.796-4.312.378.074.767.11 1.167.11.565 0 1.113-.073 1.634-.216-2.84-.57-4.98-3.08-4.98-6.084 0-.027 0-.053.002-.08.836.465 1.793.744 2.81.777-1.665-1.115-2.76-3.012-2.76-5.166 0-1.138.306-2.205.84-3.12 3.06 3.753 7.634 6.224 12.792 6.482-.106-.453-.16-.928-.16-1.414 0-3.426 2.777-6.205 6.205-6.205 1.785 0 3.397.754 4.53 1.96 1.413-.278 2.74-.796 3.94-1.507-.465 1.45-1.448 2.666-2.73 3.433 1.257-.15 2.453-.485 3.565-.978-.83 1.247-1.883 2.34-3.096 3.215z"/>
</svg>