<svg height="56.693" viewBox="0 0 56.693 56.693" width="56.693" xmlns="http://www.w3.org/2000/svg">
  <path d="M17.833 31.853h1.783v8.857h1.723v-8.857h1.78v-1.508h-5.287M28.413 24.493c.234 0 .42-.062.557-.19.137-.13.207-.308.207-.532v-4.59c0-.183-.07-.333-.21-.444-.142-.115-.325-.172-.554-.172-.21 0-.38.057-.512.172-.13.11-.194.262-.194.445v4.59c0 .23.06.41.184.534.12.127.297.19.523.19zM32.212 32.97c-.238 0-.473.06-.705.182-.23.12-.45.3-.654.533v-3.34h-1.545V40.71h1.545v-.586c.2.236.418.408.652.52.232.11.5.166.8.166.452 0 .802-.143 1.038-.432.24-.29.36-.705.36-1.246v-4.244c0-.627-.126-1.104-.384-1.428-.255-.326-.624-.49-1.108-.49zm-.084 5.95c0 .247-.045.42-.133.528-.088.11-.225.162-.412.162-.13 0-.25-.03-.37-.082-.116-.053-.24-.146-.36-.27v-4.764c.104-.107.21-.186.314-.234.105-.053.215-.076.324-.076.206 0 .366.066.478.197.107.136.16.33.16.59v3.95zM26.628 38.874c-.143.164-.3.3-.473.408-.172.107-.316.16-.426.16-.146 0-.25-.04-.315-.12-.062-.08-.096-.212-.096-.392v-5.867H23.79v6.395c0 .457.09.793.268 1.025.182.227.445.34.8.34.286 0 .583-.078.888-.242.305-.165.598-.4.88-.708v.838h1.53v-7.646h-1.53v5.81z"/>
  <path d="M28.347 5.155c-13.6 0-24.625 11.025-24.625 24.625 0 13.602 11.025 24.625 24.625 24.625S52.972 43.382 52.972 29.78c0-13.6-11.026-24.625-24.625-24.625zm3.978 12.162h1.72v6.46c0 .2.038.343.11.43.07.09.188.138.35.138.125 0 .285-.06.48-.178.19-.12.37-.27.53-.457v-6.393h1.722v8.424h-1.723v-.93c-.314.343-.645.606-.99.784-.342.178-.674.27-.998.27-.398 0-.697-.127-.9-.38-.2-.247-.3-.622-.3-1.128v-7.04zm-6.39 1.926c0-.65.23-1.17.693-1.56.465-.384 1.088-.58 1.87-.58.712 0 1.294.206 1.75.612.454.406.68.934.68 1.578v4.35c0 .723-.222 1.287-.665 1.695-.45.408-1.062.613-1.844.613-.753 0-1.356-.21-1.808-.63-.45-.426-.678-.996-.678-1.71v-4.367zm-4.688-4.92l1.258 4.562h.123l1.197-4.562h1.97l-2.255 6.682v4.737h-1.938v-4.526l-2.307-6.893h1.952zm22.54 24.033c0 3.047-2.472 5.52-5.52 5.52H19.093c-3.05 0-5.52-2.473-5.52-5.52v-4.438c0-3.05 2.47-5.52 5.52-5.52h19.176c3.047 0 5.518 2.47 5.518 5.52v4.438z"/>
  <path d="M36.827 32.874c-.686 0-1.24.207-1.674.627-.432.417-.65.96-.65 1.618v3.438c0 .738.2 1.316.592 1.734.393.42.932.63 1.617.63.762 0 1.334-.196 1.715-.59.387-.4.576-.99.576-1.774v-.393H37.43v.348c0 .452-.052.743-.15.874s-.278.197-.532.197c-.244 0-.416-.075-.518-.23-.1-.157-.148-.435-.148-.84v-1.438h2.922V35.12c0-.724-.186-1.278-.562-1.667-.377-.386-.916-.58-1.615-.58zm.604 3.008h-1.35v-.773c0-.32.05-.554.157-.687.107-.143.28-.21.525-.21.23 0 .404.067.508.21.105.133.16.365.16.686v.772z"/>
</svg>